<svg version="1.1" xmlns="http://www.w3.org/2000/svg" xmlns:xlink="http://www.w3.org/1999/xlink" width="490.75" height="44" viewBox="0,0,490.75,44"><g transform="translate(5.25,-158)"><g data-paper-data="{&quot;isPaintingLayer&quot;:true}" fill-rule="nonzero" stroke="#000000" stroke-width="2" stroke-linecap="butt" stroke-linejoin="miter" stroke-miterlimit="10" stroke-dasharray="" stroke-dashoffset="0" style="mix-blend-mode: normal"><path d="M-3.75,168.5v-4h488v4z" fill="#505050"/><path d="M-4.25,195.5v-4h488v4z" fill="#505050"/><path d="M215.5,201v-42h5v42z" fill="#5f3700"/><path d="M237.5,201v-42h5v42z" fill="#5f3700"/><path d="M237.5,201v-42h5v42z" fill="#5f3700"/><path d="M259.5,201v-42h5v42z" fill="#5f3700"/><path d="M259.5,201v-42h5v42z" fill="#5f3700"/><path d="M281.5,201v-42h5v42z" fill="#5f3700"/><path d="M281.5,201v-42h5v42z" fill="#5f3700"/><path d="M303.5,201v-42h5v42z" fill="#5f3700"/><path d="M127.5,201v-42h5v42z" fill="#5f3700"/><path d="M149.5,201v-42h5v42z" fill="#5f3700"/><path d="M149.5,201v-42h5v42z" fill="#5f3700"/><path d="M171.5,201v-42h5v42z" fill="#5f3700"/><path d="M171.5,201v-42h5v42z" fill="#5f3700"/><path d="M193.5,201v-42h5v42z" fill="#5f3700"/><path d="M193.5,201v-42h5v42z" fill="#5f3700"/><path d="M215.5,201v-42h5v42z" fill="#5f3700"/><path d="M39.5,201v-42h5v42z" fill="#5f3700"/><path d="M61.5,201v-42h5v42z" fill="#5f3700"/><path d="M61.5,201v-42h5v42z" fill="#5f3700"/><path d="M83.5,201v-42h5v42z" fill="#5f3700"/><path d="M83.5,201v-42h5v42z" fill="#5f3700"/><path d="M105.5,201v-42h5v42z" fill="#5f3700"/><path d="M105.5,201v-42h5v42z" fill="#5f3700"/><path d="M127.5,201v-42h5v42z" fill="#5f3700"/><path d="M17.5,201v-42h5v42z" fill="#5f3700"/><path d="M17.5,201v-42h5v42z" fill="#5f3700"/><path d="M413.5,201v-42h5v42z" fill="#5f3700"/><path d="M435.5,201v-42h5v42z" fill="#5f3700"/><path d="M435.5,201v-42h5v42z" fill="#5f3700"/><path d="M457.5,201v-42h5v42z" fill="#5f3700"/><path d="M457.5,201v-42h5v42z" fill="#5f3700"/><path d="M325.5,201v-42h5v42z" fill="#5f3700"/><path d="M347.5,201v-42h5v42z" fill="#5f3700"/><path d="M347.5,201v-42h5v42z" fill="#5f3700"/><path d="M369.5,201v-42h5v42z" fill="#5f3700"/><path d="M369.5,201v-42h5v42z" fill="#5f3700"/><path d="M391.5,201v-42h5v42z" fill="#5f3700"/><path d="M391.5,201v-42h5v42z" fill="#5f3700"/><path d="M413.5,201v-42h5v42z" fill="#5f3700"/><path d="M303.5,201v-42h5v42z" fill="#5f3700"/><path d="M303.5,201v-42h5v42z" fill="#5f3700"/><path d="M17.33934,201v-42h5v42z" fill="#5f3700"/><path d="M17.33934,201v-42h5v42z" fill="#5f3700"/><path d="M39.5,201v-42h5v42z" fill="#5f3700"/><path d="M457.5,201v-42h5v42z" fill="#5f3700"/><path d="M457.5,201v-42h5v42z" fill="#5f3700"/><path d="M479.5,201v-42h5v42z" fill="#5f3700"/><path d="M479.5,201v-42h5v42z" fill="#5f3700"/></g></g></svg>